<svg width="303" height="37" viewBox="0 0 303 37" fill="none" xmlns="http://www.w3.org/2000/svg">
<path d="M26.7822 20V6.33545L19.5605 20H14.5195L7.29785 6.33545V20H2.04443V0.543945H9.18115L17.04 15.2705L24.8989 0.543945H32.0073V20H26.7822ZM59.7896 19.0371C58.1942 19.5658 56.5988 19.9434 55.0034 20.1699C53.4175 20.4059 51.7938 20.5239 50.1323 20.5239C48.0083 20.5239 46.1156 20.2974 44.4541 19.8442C42.8021 19.3817 41.4097 18.7161 40.2769 17.8477C39.144 16.9792 38.2803 15.9172 37.6855 14.6616C37.0908 13.4061 36.7935 11.9854 36.7935 10.3994C36.7935 8.92676 37.0908 7.56266 37.6855 6.30713C38.2897 5.04215 39.1393 3.9471 40.2344 3.02197C41.3389 2.0874 42.6699 1.36051 44.2275 0.841309C45.7852 0.312663 47.5221 0.0483398 49.4385 0.0483398C51.2038 0.0483398 52.818 0.289062 54.2812 0.770508C55.7539 1.24251 57.0142 1.9458 58.062 2.88037C59.1193 3.81494 59.9359 4.96663 60.5117 6.33545C61.097 7.70426 61.3896 9.28076 61.3896 11.0649V12.3677H42.2168C42.3867 12.9813 42.6652 13.543 43.0522 14.0527C43.4487 14.5625 43.9821 14.9967 44.6523 15.3555C45.3226 15.7142 46.1439 15.9927 47.1162 16.1909C48.098 16.3892 49.2686 16.4883 50.6279 16.4883C51.5908 16.4883 52.5348 16.4316 53.46 16.3184C54.3851 16.1956 55.2489 16.0399 56.0513 15.8511C56.8537 15.6528 57.5758 15.4357 58.2178 15.1997C58.8691 14.9637 59.3931 14.7277 59.7896 14.4917V19.0371ZM56.1646 8.51611C56.1174 8.03467 55.971 7.53906 55.7256 7.0293C55.4896 6.51009 55.112 6.04281 54.5928 5.62744C54.0736 5.21208 53.3939 4.87223 52.5537 4.60791C51.7135 4.33415 50.6657 4.19727 49.4102 4.19727C48.2301 4.19727 47.2106 4.34359 46.3516 4.63623C45.4925 4.92887 44.7703 5.29232 44.1851 5.72656C43.6092 6.16081 43.1608 6.62809 42.8398 7.12842C42.5189 7.62874 42.3112 8.09131 42.2168 8.51611H56.1646ZM71.415 11.6738C71.415 12.4857 71.4906 13.1512 71.6416 13.6704C71.7926 14.1802 72.0381 14.5861 72.3779 14.8882C72.7178 15.1903 73.1567 15.3979 73.6948 15.5112C74.2424 15.6245 74.9126 15.6812 75.7056 15.6812H85.6743V20H74.6294C73.1001 20 71.7974 19.8773 70.7212 19.6318C69.6545 19.377 68.7812 18.9899 68.1016 18.4707C67.4219 17.9421 66.9263 17.2765 66.6147 16.4741C66.3127 15.6717 66.1616 14.7183 66.1616 13.6138V0.543945H71.415V11.6738ZM115.071 10.2861C115.071 11.957 114.764 13.4344 114.15 14.7183C113.537 15.9927 112.659 17.0594 111.517 17.9185C110.374 18.7775 108.987 19.4289 107.354 19.8726C105.73 20.3068 103.903 20.5239 101.874 20.5239C99.8439 20.5239 98.0078 20.3068 96.3652 19.8726C94.7321 19.4289 93.3397 18.7775 92.188 17.9185C91.0363 17.0594 90.1489 15.9927 89.5259 14.7183C88.9028 13.4344 88.5913 11.957 88.5913 10.2861C88.5913 8.61523 88.9028 7.14258 89.5259 5.86816C90.1489 4.58431 91.0363 3.51286 92.188 2.65381C93.3397 1.79476 94.7321 1.14811 96.3652 0.713867C98.0078 0.270182 99.8439 0.0483398 101.874 0.0483398C103.903 0.0483398 105.73 0.270182 107.354 0.713867C108.987 1.14811 110.374 1.79476 111.517 2.65381C112.659 3.51286 113.537 4.58431 114.15 5.86816C114.764 7.14258 115.071 8.61523 115.071 10.2861ZM109.761 10.2861C109.761 9.55924 109.643 8.83708 109.407 8.11963C109.18 7.39274 108.77 6.74137 108.175 6.16553C107.59 5.58968 106.787 5.1224 105.768 4.76367C104.748 4.40495 103.45 4.22559 101.874 4.22559C100.816 4.22559 99.8864 4.31055 99.084 4.48047C98.2816 4.64095 97.5877 4.86751 97.0024 5.16016C96.4172 5.4528 95.9263 5.79736 95.5298 6.19385C95.1333 6.58089 94.8171 7.00098 94.5811 7.4541C94.3451 7.89779 94.1751 8.36507 94.0713 8.85596C93.9769 9.3374 93.9297 9.81413 93.9297 10.2861C93.9297 10.7676 93.9769 11.2537 94.0713 11.7446C94.1751 12.2355 94.3451 12.7075 94.5811 13.1606C94.8171 13.6043 95.1333 14.0197 95.5298 14.4067C95.9263 14.7938 96.4172 15.1336 97.0024 15.4263C97.5877 15.7095 98.2816 15.936 99.084 16.106C99.8864 16.2664 100.816 16.3467 101.874 16.3467C103.45 16.3467 104.748 16.1673 105.768 15.8086C106.787 15.4499 107.59 14.9826 108.175 14.4067C108.77 13.8309 109.18 13.1842 109.407 12.4668C109.643 11.7399 109.761 11.013 109.761 10.2861ZM142.046 14.6333C142.046 15.3885 141.947 16.0446 141.749 16.6016C141.55 17.1585 141.272 17.64 140.913 18.0459C140.564 18.4424 140.139 18.7681 139.639 19.0229C139.148 19.2684 138.6 19.4666 137.996 19.6177C137.401 19.7593 136.764 19.8584 136.084 19.915C135.405 19.9717 134.701 20 133.975 20H119.857V0.543945H133.72C134.277 0.543945 134.834 0.567546 135.391 0.614746C135.957 0.661947 136.495 0.751628 137.005 0.883789C137.515 1.00651 137.987 1.18115 138.421 1.40771C138.865 1.63428 139.247 1.93164 139.568 2.2998C139.898 2.66797 140.153 3.11165 140.333 3.63086C140.521 4.15007 140.616 4.76367 140.616 5.47168C140.616 6.73665 140.304 7.74202 139.681 8.48779C139.058 9.22412 138.076 9.71501 136.736 9.96045C137.68 10.0265 138.487 10.1729 139.157 10.3994C139.837 10.6165 140.389 10.9186 140.814 11.3057C141.239 11.6833 141.55 12.1506 141.749 12.7075C141.947 13.255 142.046 13.897 142.046 14.6333ZM135.49 6.30713C135.49 6.06169 135.452 5.8304 135.376 5.61328C135.301 5.38672 135.164 5.18848 134.966 5.01855C134.768 4.84863 134.499 4.71175 134.159 4.60791C133.819 4.50407 133.385 4.45215 132.856 4.45215H125.11V8.10547H132.856C133.385 8.10547 133.819 8.05827 134.159 7.96387C134.499 7.86947 134.768 7.74202 134.966 7.58154C135.164 7.42106 135.301 7.23226 135.376 7.01514C135.452 6.78857 135.49 6.55257 135.49 6.30713ZM136.708 14.0244C136.708 13.5807 136.632 13.2267 136.481 12.9624C136.33 12.6886 136.094 12.481 135.773 12.3394C135.452 12.1883 135.037 12.0892 134.527 12.042C134.017 11.9948 133.408 11.9712 132.7 11.9712H125.11V16.0918H132.7C133.408 16.0918 134.017 16.0682 134.527 16.021C135.037 15.9738 135.452 15.8747 135.773 15.7236C136.094 15.5726 136.33 15.3649 136.481 15.1006C136.632 14.8268 136.708 14.4681 136.708 14.0244ZM172.023 10.2861C172.023 11.957 171.716 13.4344 171.103 14.7183C170.489 15.9927 169.611 17.0594 168.469 17.9185C167.326 18.7775 165.939 19.4289 164.306 19.8726C162.682 20.3068 160.855 20.5239 158.826 20.5239C156.796 20.5239 154.96 20.3068 153.317 19.8726C151.684 19.4289 150.292 18.7775 149.14 17.9185C147.988 17.0594 147.101 15.9927 146.478 14.7183C145.855 13.4344 145.543 11.957 145.543 10.2861C145.543 8.61523 145.855 7.14258 146.478 5.86816C147.101 4.58431 147.988 3.51286 149.14 2.65381C150.292 1.79476 151.684 1.14811 153.317 0.713867C154.96 0.270182 156.796 0.0483398 158.826 0.0483398C160.855 0.0483398 162.682 0.270182 164.306 0.713867C165.939 1.14811 167.326 1.79476 168.469 2.65381C169.611 3.51286 170.489 4.58431 171.103 5.86816C171.716 7.14258 172.023 8.61523 172.023 10.2861ZM166.713 10.2861C166.713 9.55924 166.595 8.83708 166.359 8.11963C166.132 7.39274 165.722 6.74137 165.127 6.16553C164.542 5.58968 163.739 5.1224 162.72 4.76367C161.7 4.40495 160.402 4.22559 158.826 4.22559C157.768 4.22559 156.839 4.31055 156.036 4.48047C155.234 4.64095 154.54 4.86751 153.955 5.16016C153.369 5.4528 152.878 5.79736 152.482 6.19385C152.085 6.58089 151.769 7.00098 151.533 7.4541C151.297 7.89779 151.127 8.36507 151.023 8.85596C150.929 9.3374 150.882 9.81413 150.882 10.2861C150.882 10.7676 150.929 11.2537 151.023 11.7446C151.127 12.2355 151.297 12.7075 151.533 13.1606C151.769 13.6043 152.085 14.0197 152.482 14.4067C152.878 14.7938 153.369 15.1336 153.955 15.4263C154.54 15.7095 155.234 15.936 156.036 16.106C156.839 16.2664 157.768 16.3467 158.826 16.3467C160.402 16.3467 161.7 16.1673 162.72 15.8086C163.739 15.4499 164.542 14.9826 165.127 14.4067C165.722 13.8309 166.132 13.1842 166.359 12.4668C166.595 11.7399 166.713 11.013 166.713 10.2861ZM201.986 10.2861C201.986 11.957 201.679 13.4344 201.065 14.7183C200.452 15.9927 199.574 17.0594 198.432 17.9185C197.289 18.7775 195.902 19.4289 194.269 19.8726C192.645 20.3068 190.818 20.5239 188.789 20.5239C186.759 20.5239 184.923 20.3068 183.28 19.8726C181.647 19.4289 180.255 18.7775 179.103 17.9185C177.951 17.0594 177.064 15.9927 176.441 14.7183C175.818 13.4344 175.506 11.957 175.506 10.2861C175.506 8.61523 175.818 7.14258 176.441 5.86816C177.064 4.58431 177.951 3.51286 179.103 2.65381C180.255 1.79476 181.647 1.14811 183.28 0.713867C184.923 0.270182 186.759 0.0483398 188.789 0.0483398C190.818 0.0483398 192.645 0.270182 194.269 0.713867C195.902 1.14811 197.289 1.79476 198.432 2.65381C199.574 3.51286 200.452 4.58431 201.065 5.86816C201.679 7.14258 201.986 8.61523 201.986 10.2861ZM196.676 10.2861C196.676 9.55924 196.558 8.83708 196.322 8.11963C196.095 7.39274 195.685 6.74137 195.09 6.16553C194.505 5.58968 193.702 5.1224 192.683 4.76367C191.663 4.40495 190.365 4.22559 188.789 4.22559C187.731 4.22559 186.801 4.31055 185.999 4.48047C185.197 4.64095 184.503 4.86751 183.917 5.16016C183.332 5.4528 182.841 5.79736 182.445 6.19385C182.048 6.58089 181.732 7.00098 181.496 7.4541C181.26 7.89779 181.09 8.36507 180.986 8.85596C180.892 9.3374 180.845 9.81413 180.845 10.2861C180.845 10.7676 180.892 11.2537 180.986 11.7446C181.09 12.2355 181.26 12.7075 181.496 13.1606C181.732 13.6043 182.048 14.0197 182.445 14.4067C182.841 14.7938 183.332 15.1336 183.917 15.4263C184.503 15.7095 185.197 15.936 185.999 16.106C186.801 16.2664 187.731 16.3467 188.789 16.3467C190.365 16.3467 191.663 16.1673 192.683 15.8086C193.702 15.4499 194.505 14.9826 195.09 14.4067C195.685 13.8309 196.095 13.1842 196.322 12.4668C196.558 11.7399 196.676 11.013 196.676 10.2861ZM225.251 20C225.157 18.9427 224.902 18.0176 224.486 17.2246C224.071 16.4222 223.547 15.7331 222.915 15.1572C222.292 14.5814 221.583 14.1047 220.791 13.7271C220.007 13.3494 219.2 13.0521 218.369 12.835C217.538 12.6084 216.708 12.4526 215.877 12.3677C215.056 12.2733 214.291 12.2261 213.583 12.2261H212.025V20H206.772V0.543945H212.025V8.04883H213.102C213.828 8.04883 214.588 7.99219 215.381 7.87891C216.174 7.76562 216.958 7.58626 217.732 7.34082C218.515 7.09538 219.266 6.77913 219.983 6.39209C220.701 6.00505 221.343 5.53304 221.909 4.97607C222.476 4.41911 222.948 3.77718 223.325 3.05029C223.703 2.31396 223.939 1.47852 224.033 0.543945H229.386C229.291 1.57292 229.084 2.50277 228.763 3.3335C228.451 4.16423 228.059 4.90999 227.587 5.5708C227.125 6.22217 226.606 6.79329 226.03 7.28418C225.454 7.77507 224.864 8.19987 224.26 8.55859C223.656 8.90788 223.051 9.20052 222.447 9.43652C221.853 9.66309 221.296 9.83773 220.776 9.96045C221.437 10.0643 222.122 10.2295 222.83 10.4561C223.547 10.6732 224.255 10.9658 224.954 11.334C225.652 11.6927 226.318 12.1364 226.95 12.665C227.592 13.1937 228.168 13.812 228.678 14.52C229.188 15.228 229.612 16.0352 229.952 16.9414C230.292 17.8477 230.509 18.8672 230.604 20H225.251ZM235.121 20V0.543945H240.374V20H235.121ZM265.013 20V9.09668C265.013 8.36979 264.951 7.7137 264.829 7.12842C264.706 6.53369 264.475 6.02865 264.135 5.61328C263.804 5.18848 263.337 4.86279 262.733 4.63623C262.138 4.40023 261.369 4.28223 260.425 4.28223C259.707 4.28223 258.952 4.38135 258.159 4.57959C257.376 4.76839 256.597 5.02327 255.823 5.34424C255.049 5.6652 254.308 6.03809 253.6 6.46289C252.901 6.8877 252.278 7.33138 251.73 7.79395V20H246.477V0.543945H251.73V3.20605C252.391 2.82845 253.095 2.45557 253.84 2.0874C254.586 1.7098 255.379 1.36995 256.219 1.06787C257.059 0.765788 257.951 0.520345 258.896 0.331543C259.84 0.142741 260.835 0.0483398 261.883 0.0483398C263.195 0.0483398 264.366 0.208822 265.395 0.529785C266.433 0.841309 267.311 1.28971 268.029 1.875C268.746 2.45085 269.294 3.15413 269.671 3.98486C270.058 4.80615 270.252 5.72656 270.252 6.74609V20H265.013ZM288.802 0.0483398C290.709 0.0483398 292.479 0.213542 294.112 0.543945C295.754 0.864909 297.26 1.28027 298.629 1.79004V6.54785C298.091 6.24577 297.482 5.95312 296.802 5.66992C296.132 5.38672 295.4 5.13656 294.607 4.91943C293.814 4.70231 292.965 4.52767 292.059 4.39551C291.152 4.26335 290.199 4.19727 289.198 4.19727C287.952 4.19727 286.867 4.28695 285.941 4.46631C285.016 4.64567 284.223 4.88639 283.562 5.18848C282.902 5.49056 282.359 5.84456 281.934 6.25049C281.509 6.64697 281.174 7.07178 280.929 7.5249C280.683 7.97803 280.513 8.44059 280.419 8.9126C280.325 9.3846 280.277 9.84245 280.277 10.2861C280.277 10.6732 280.315 11.0933 280.391 11.5464C280.476 11.9995 280.627 12.4526 280.844 12.9058C281.07 13.3589 281.382 13.7931 281.778 14.2085C282.175 14.6239 282.689 14.992 283.322 15.313C283.964 15.634 284.733 15.8936 285.63 16.0918C286.527 16.2806 287.593 16.375 288.83 16.375C289.453 16.375 289.996 16.3561 290.458 16.3184C290.921 16.2806 291.341 16.2287 291.719 16.1626C292.106 16.0965 292.465 16.0163 292.795 15.9219C293.135 15.8275 293.484 15.7284 293.843 15.6245V13.2739H287.952V9.01172H299.096V18.9521C298.398 19.1882 297.614 19.4053 296.746 19.6035C295.887 19.7923 294.994 19.9528 294.069 20.085C293.154 20.2266 292.233 20.3351 291.308 20.4106C290.383 20.4862 289.51 20.5239 288.688 20.5239C287.414 20.5239 286.192 20.439 285.021 20.269C283.85 20.0991 282.755 19.8395 281.736 19.4902C280.726 19.1315 279.801 18.6784 278.96 18.1309C278.13 17.5833 277.417 16.932 276.822 16.1768C276.237 15.4215 275.779 14.5578 275.449 13.5854C275.128 12.6037 274.967 11.5039 274.967 10.2861C274.967 9.0778 275.137 7.98275 275.477 7.00098C275.817 6.01921 276.289 5.15072 276.893 4.39551C277.507 3.6403 278.238 2.98893 279.088 2.44141C279.947 1.89388 280.886 1.44548 281.906 1.09619C282.935 0.737467 284.03 0.473145 285.191 0.303223C286.361 0.133301 287.565 0.0483398 288.802 0.0483398ZM10.5063 29.0273C10.5063 29.5303 10.4233 29.9746 10.2573 30.3604C10.0962 30.7461 9.83984 31.0708 9.48828 31.3345C9.13672 31.5981 8.68262 31.7983 8.12598 31.9351C7.57422 32.0669 6.90771 32.1328 6.12646 32.1328H1.60742V36H0.691895V25.9365H6.12646C6.90771 25.9365 7.57422 26.0049 8.12598 26.1416C8.68262 26.2734 9.13672 26.4688 9.48828 26.7275C9.83984 26.9863 10.0962 27.3086 10.2573 27.6943C10.4233 28.0801 10.5063 28.5244 10.5063 29.0273ZM9.56152 29.0273C9.56152 28.5488 9.48096 28.1631 9.31982 27.8701C9.16357 27.5771 8.91943 27.3525 8.5874 27.1963C8.26025 27.0352 7.84277 26.9277 7.33496 26.874C6.83203 26.8203 6.23389 26.7935 5.54053 26.7935H1.60742V31.2759H5.54053C5.80908 31.2759 6.09473 31.2783 6.39746 31.2832C6.70508 31.2832 7.00781 31.2686 7.30566 31.2393C7.60352 31.2051 7.88672 31.1489 8.15527 31.0708C8.42871 30.9878 8.66797 30.8633 8.87305 30.6973C9.08301 30.5312 9.24902 30.314 9.37109 30.0454C9.49805 29.7769 9.56152 29.4375 9.56152 29.0273ZM23.126 35.4727C22.7158 35.5996 22.335 35.7095 21.9834 35.8022C21.6318 35.8901 21.2852 35.9609 20.9434 36.0146C20.6016 36.0732 20.2524 36.1147 19.896 36.1392C19.5444 36.1685 19.1562 36.1831 18.7314 36.1831C17.7451 36.1831 16.854 36.0635 16.0581 35.8242C15.2622 35.585 14.5835 35.2432 14.022 34.7988C13.4653 34.3496 13.0356 33.8076 12.7329 33.1729C12.4302 32.5381 12.2788 31.8252 12.2788 31.0342C12.2788 30.2676 12.4229 29.5645 12.7109 28.9248C13.0039 28.2852 13.4116 27.7358 13.9341 27.2769C14.4565 26.8179 15.0815 26.4614 15.8091 26.2075C16.5366 25.9536 17.3398 25.8267 18.2188 25.8267C19.1318 25.8267 19.9448 25.9487 20.6577 26.1929C21.3706 26.437 21.9712 26.7861 22.4595 27.2402C22.9478 27.6943 23.3188 28.2461 23.5728 28.8955C23.8267 29.54 23.9536 30.2676 23.9536 31.0781V31.3052H13.2236C13.2773 31.9302 13.4336 32.4941 13.6924 32.9971C13.9512 33.5 14.3174 33.9272 14.791 34.2788C15.2695 34.6304 15.8555 34.9014 16.5488 35.0918C17.2471 35.2773 18.0601 35.3701 18.9878 35.3701C19.3833 35.3701 19.7837 35.3433 20.189 35.2896C20.5942 35.2358 20.9824 35.165 21.3535 35.0771C21.7246 34.9844 22.064 34.8818 22.3716 34.7695C22.6792 34.6523 22.9307 34.5327 23.126 34.4106V35.4727ZM23.0527 30.5068C23.0186 29.9941 22.9038 29.5059 22.7085 29.042C22.5132 28.5732 22.2202 28.1606 21.8296 27.8042C21.4438 27.4478 20.9507 27.1646 20.3501 26.9546C19.7544 26.7446 19.0391 26.6396 18.2041 26.6396C17.418 26.6396 16.7295 26.7446 16.1387 26.9546C15.5479 27.1646 15.0474 27.4478 14.6372 27.8042C14.2271 28.1558 13.9048 28.5659 13.6704 29.0347C13.436 29.4985 13.2871 29.9893 13.2236 30.5068H23.0527ZM38.7119 30.9756C38.7119 31.8789 38.5483 32.6602 38.2212 33.3193C37.894 33.9736 37.4448 34.5156 36.8735 34.9453C36.3022 35.3701 35.6284 35.6851 34.8521 35.8901C34.0757 36.0952 33.2383 36.1978 32.3398 36.1978C31.4365 36.1978 30.5942 36.0952 29.813 35.8901C29.0317 35.6851 28.353 35.3701 27.7769 34.9453C27.2007 34.5156 26.749 33.9736 26.4219 33.3193C26.0947 32.6602 25.9312 31.8789 25.9312 30.9756C25.9312 30.375 26.0068 29.8306 26.1582 29.3423C26.3096 28.8491 26.522 28.4097 26.7954 28.0239C27.0688 27.6333 27.3984 27.2964 27.7842 27.0132C28.1748 26.73 28.6069 26.4956 29.0806 26.3101C29.5591 26.1196 30.0718 25.9805 30.6187 25.8926C31.1655 25.7998 31.7393 25.7534 32.3398 25.7534C33.2383 25.7534 34.0757 25.856 34.8521 26.061C35.6284 26.2661 36.3022 26.5835 36.8735 27.0132C37.4448 27.438 37.894 27.98 38.2212 28.6392C38.5483 29.2935 38.7119 30.0723 38.7119 30.9756ZM37.7671 30.9756C37.7671 30.2627 37.6499 29.6328 37.4155 29.0859C37.186 28.5391 36.8442 28.0801 36.3901 27.709C35.936 27.333 35.3696 27.0498 34.6909 26.8594C34.0171 26.6641 33.2334 26.5664 32.3398 26.5664C31.4463 26.5664 30.6577 26.6641 29.9741 26.8594C29.2954 27.0547 28.7266 27.3403 28.2676 27.7163C27.8086 28.0874 27.4619 28.5488 27.2275 29.1006C26.9932 29.6475 26.876 30.2725 26.876 30.9756C26.876 31.6885 26.9932 32.3184 27.2275 32.8652C27.4619 33.4121 27.8086 33.8735 28.2676 34.2495C28.7266 34.6206 29.2954 34.9038 29.9741 35.0991C30.6577 35.2896 31.4463 35.3848 32.3398 35.3848C33.2334 35.3848 34.0171 35.2896 34.6909 35.0991C35.3696 34.9038 35.936 34.6206 36.3901 34.2495C36.8442 33.8735 37.186 33.4121 37.4155 32.8652C37.6499 32.3184 37.7671 31.6885 37.7671 30.9756ZM51.2144 29.0273C51.2144 29.5303 51.1313 29.9746 50.9653 30.3604C50.8042 30.7461 50.5479 31.0708 50.1963 31.3345C49.8447 31.5981 49.3906 31.7983 48.834 31.9351C48.2822 32.0669 47.6157 32.1328 46.8345 32.1328H42.3154V36H41.3999V25.9365H46.8345C47.6157 25.9365 48.2822 26.0049 48.834 26.1416C49.3906 26.2734 49.8447 26.4688 50.1963 26.7275C50.5479 26.9863 50.8042 27.3086 50.9653 27.6943C51.1313 28.0801 51.2144 28.5244 51.2144 29.0273ZM50.2695 29.0273C50.2695 28.5488 50.189 28.1631 50.0278 27.8701C49.8716 27.5771 49.6274 27.3525 49.2954 27.1963C48.9683 27.0352 48.5508 26.9277 48.043 26.874C47.54 26.8203 46.9419 26.7935 46.2485 26.7935H42.3154V31.2759H46.2485C46.5171 31.2759 46.8027 31.2783 47.1055 31.2832C47.4131 31.2832 47.7158 31.2686 48.0137 31.2393C48.3115 31.2051 48.5947 31.1489 48.8633 31.0708C49.1367 30.9878 49.376 30.8633 49.5811 30.6973C49.791 30.5312 49.957 30.314 50.0791 30.0454C50.2061 29.7769 50.2695 29.4375 50.2695 29.0273ZM54.6055 32.521C54.6055 32.9751 54.6421 33.3657 54.7153 33.6929C54.7886 34.02 54.9424 34.2886 55.1768 34.4985C55.4111 34.7085 55.748 34.8647 56.1875 34.9673C56.6318 35.0649 57.2202 35.1138 57.9526 35.1138H62.501V36H57.7695C56.9639 36 56.2974 35.9365 55.77 35.8096C55.2476 35.6777 54.8301 35.4775 54.5176 35.209C54.21 34.9355 53.9951 34.5913 53.873 34.1763C53.751 33.7612 53.6899 33.2681 53.6899 32.6968V25.9365H54.6055V32.521ZM74.4834 35.4727C74.0732 35.5996 73.6924 35.7095 73.3408 35.8022C72.9893 35.8901 72.6426 35.9609 72.3008 36.0146C71.959 36.0732 71.6099 36.1147 71.2534 36.1392C70.9019 36.1685 70.5137 36.1831 70.0889 36.1831C69.1025 36.1831 68.2114 36.0635 67.4155 35.8242C66.6196 35.585 65.9409 35.2432 65.3794 34.7988C64.8228 34.3496 64.3931 33.8076 64.0903 33.1729C63.7876 32.5381 63.6362 31.8252 63.6362 31.0342C63.6362 30.2676 63.7803 29.5645 64.0684 28.9248C64.3613 28.2852 64.769 27.7358 65.2915 27.2769C65.814 26.8179 66.439 26.4614 67.1665 26.2075C67.894 25.9536 68.6973 25.8267 69.5762 25.8267C70.4893 25.8267 71.3022 25.9487 72.0151 26.1929C72.728 26.437 73.3286 26.7861 73.8169 27.2402C74.3052 27.6943 74.6763 28.2461 74.9302 28.8955C75.1841 29.54 75.311 30.2676 75.311 31.0781V31.3052H64.5811C64.6348 31.9302 64.791 32.4941 65.0498 32.9971C65.3086 33.5 65.6748 33.9272 66.1484 34.2788C66.627 34.6304 67.2129 34.9014 67.9062 35.0918C68.6045 35.2773 69.4175 35.3701 70.3452 35.3701C70.7407 35.3701 71.1411 35.3433 71.5464 35.2896C71.9517 35.2358 72.3398 35.165 72.7109 35.0771C73.082 34.9844 73.4214 34.8818 73.729 34.7695C74.0366 34.6523 74.2881 34.5327 74.4834 34.4106V35.4727ZM74.4102 30.5068C74.376 29.9941 74.2612 29.5059 74.0659 29.042C73.8706 28.5732 73.5776 28.1606 73.187 27.8042C72.8013 27.4478 72.3081 27.1646 71.7075 26.9546C71.1118 26.7446 70.3965 26.6396 69.5615 26.6396C68.7754 26.6396 68.0869 26.7446 67.4961 26.9546C66.9053 27.1646 66.4048 27.4478 65.9946 27.8042C65.5845 28.1558 65.2622 28.5659 65.0278 29.0347C64.7935 29.4985 64.6445 29.9893 64.5811 30.5068H74.4102ZM83.6313 36V25.9365H84.5469V36H83.6313ZM97.6792 36V29.3569C97.6792 28.8003 97.6035 28.3438 97.4521 27.9873C97.3057 27.626 97.0933 27.3403 96.8149 27.1304C96.5415 26.9204 96.207 26.7739 95.8115 26.6909C95.416 26.6079 94.9717 26.5664 94.4785 26.5664C93.9072 26.5664 93.3457 26.6372 92.7939 26.7788C92.2471 26.9155 91.7295 27.0913 91.2412 27.3062C90.7529 27.5161 90.3037 27.7505 89.8936 28.0093C89.4834 28.2681 89.1367 28.5171 88.8535 28.7563V36H87.938V25.9365H88.8535V27.7017C89.1953 27.4868 89.5713 27.2622 89.9814 27.0278C90.3965 26.7886 90.8408 26.5713 91.3145 26.376C91.793 26.1758 92.3032 26.0122 92.8452 25.8853C93.3872 25.7583 93.9585 25.6948 94.5591 25.6948C95.2378 25.6948 95.8286 25.7778 96.3315 25.9438C96.8394 26.105 97.2593 26.3369 97.5913 26.6396C97.9282 26.9375 98.1797 27.3013 98.3457 27.731C98.5117 28.1558 98.5947 28.6318 98.5947 29.1592V36H97.6792ZM111.661 26.7715V36H110.753V26.7715H106.175V25.9365H116.239V26.7715H111.661ZM128.148 36V31.1221H119.132V36H118.216V25.9365H119.132V30.2725H128.148V25.9365H129.063V36H128.148ZM142.599 35.4727C142.188 35.5996 141.808 35.7095 141.456 35.8022C141.104 35.8901 140.758 35.9609 140.416 36.0146C140.074 36.0732 139.725 36.1147 139.369 36.1392C139.017 36.1685 138.629 36.1831 138.204 36.1831C137.218 36.1831 136.327 36.0635 135.531 35.8242C134.735 35.585 134.056 35.2432 133.495 34.7988C132.938 34.3496 132.508 33.8076 132.206 33.1729C131.903 32.5381 131.751 31.8252 131.751 31.0342C131.751 30.2676 131.896 29.5645 132.184 28.9248C132.477 28.2852 132.884 27.7358 133.407 27.2769C133.929 26.8179 134.554 26.4614 135.282 26.2075C136.009 25.9536 136.812 25.8267 137.691 25.8267C138.604 25.8267 139.417 25.9487 140.13 26.1929C140.843 26.437 141.444 26.7861 141.932 27.2402C142.42 27.6943 142.792 28.2461 143.045 28.8955C143.299 29.54 143.426 30.2676 143.426 31.0781V31.3052H132.696C132.75 31.9302 132.906 32.4941 133.165 32.9971C133.424 33.5 133.79 33.9272 134.264 34.2788C134.742 34.6304 135.328 34.9014 136.021 35.0918C136.72 35.2773 137.533 35.3701 138.46 35.3701C138.856 35.3701 139.256 35.3433 139.662 35.2896C140.067 35.2358 140.455 35.165 140.826 35.0771C141.197 34.9844 141.537 34.8818 141.844 34.7695C142.152 34.6523 142.403 34.5327 142.599 34.4106V35.4727ZM142.525 30.5068C142.491 29.9941 142.376 29.5059 142.181 29.042C141.986 28.5732 141.693 28.1606 141.302 27.8042C140.917 27.4478 140.423 27.1646 139.823 26.9546C139.227 26.7446 138.512 26.6396 137.677 26.6396C136.891 26.6396 136.202 26.7446 135.611 26.9546C135.021 27.1646 134.52 27.4478 134.11 27.8042C133.7 28.1558 133.377 28.5659 133.143 29.0347C132.909 29.4985 132.76 29.9893 132.696 30.5068H142.525ZM161.488 36V29.3569C161.488 28.8003 161.412 28.3438 161.261 27.9873C161.114 27.626 160.902 27.3403 160.624 27.1304C160.35 26.9204 160.016 26.7739 159.62 26.6909C159.225 26.6079 158.78 26.5664 158.287 26.5664C157.716 26.5664 157.154 26.6372 156.603 26.7788C156.056 26.9155 155.538 27.0913 155.05 27.3062C154.562 27.5161 154.112 27.7505 153.702 28.0093C153.292 28.2681 152.945 28.5171 152.662 28.7563V36H151.747V25.9365H152.662V27.7017C153.004 27.4868 153.38 27.2622 153.79 27.0278C154.205 26.7886 154.649 26.5713 155.123 26.376C155.602 26.1758 156.112 26.0122 156.654 25.8853C157.196 25.7583 157.767 25.6948 158.368 25.6948C159.046 25.6948 159.637 25.7778 160.14 25.9438C160.648 26.105 161.068 26.3369 161.4 26.6396C161.737 26.9375 161.988 27.3013 162.154 27.731C162.32 28.1558 162.403 28.6318 162.403 29.1592V36H161.488ZM175.895 35.4727C175.484 35.5996 175.104 35.7095 174.752 35.8022C174.4 35.8901 174.054 35.9609 173.712 36.0146C173.37 36.0732 173.021 36.1147 172.665 36.1392C172.313 36.1685 171.925 36.1831 171.5 36.1831C170.514 36.1831 169.623 36.0635 168.827 35.8242C168.031 35.585 167.352 35.2432 166.791 34.7988C166.234 34.3496 165.804 33.8076 165.501 33.1729C165.199 32.5381 165.047 31.8252 165.047 31.0342C165.047 30.2676 165.191 29.5645 165.479 28.9248C165.772 28.2852 166.18 27.7358 166.703 27.2769C167.225 26.8179 167.85 26.4614 168.578 26.2075C169.305 25.9536 170.108 25.8267 170.987 25.8267C171.9 25.8267 172.713 25.9487 173.426 26.1929C174.139 26.437 174.74 26.7861 175.228 27.2402C175.716 27.6943 176.087 28.2461 176.341 28.8955C176.595 29.54 176.722 30.2676 176.722 31.0781V31.3052H165.992C166.046 31.9302 166.202 32.4941 166.461 32.9971C166.72 33.5 167.086 33.9272 167.56 34.2788C168.038 34.6304 168.624 34.9014 169.317 35.0918C170.016 35.2773 170.829 35.3701 171.756 35.3701C172.152 35.3701 172.552 35.3433 172.958 35.2896C173.363 35.2358 173.751 35.165 174.122 35.0771C174.493 34.9844 174.833 34.8818 175.14 34.7695C175.448 34.6523 175.699 34.5327 175.895 34.4106V35.4727ZM175.821 30.5068C175.787 29.9941 175.672 29.5059 175.477 29.042C175.282 28.5732 174.989 28.1606 174.598 27.8042C174.212 27.4478 173.719 27.1646 173.119 26.9546C172.523 26.7446 171.808 26.6396 170.973 26.6396C170.187 26.6396 169.498 26.7446 168.907 26.9546C168.316 27.1646 167.816 27.4478 167.406 27.8042C166.996 28.1558 166.673 28.5659 166.439 29.0347C166.205 29.4985 166.056 29.9893 165.992 30.5068H175.821ZM179.403 36V25.9365H180.318V36H179.403ZM189.635 25.7534C190.099 25.7534 190.531 25.7778 190.931 25.8267C191.332 25.8706 191.715 25.9365 192.081 26.0244C192.447 26.1074 192.804 26.21 193.15 26.332C193.497 26.4492 193.846 26.5811 194.198 26.7275V27.8408C193.919 27.665 193.622 27.499 193.304 27.3428C192.992 27.1865 192.652 27.0498 192.286 26.9326C191.925 26.8154 191.534 26.7227 191.114 26.6543C190.699 26.5859 190.252 26.5518 189.774 26.5518C188.797 26.5518 187.945 26.6543 187.218 26.8594C186.49 27.0645 185.885 27.3574 185.401 27.7383C184.918 28.1191 184.554 28.583 184.31 29.1299C184.071 29.6768 183.951 30.292 183.951 30.9756C183.951 31.6152 184.068 32.2061 184.303 32.748C184.542 33.2852 184.901 33.749 185.379 34.1396C185.863 34.5303 186.466 34.8354 187.188 35.0552C187.911 35.2749 188.758 35.3848 189.73 35.3848C190.111 35.3848 190.487 35.3701 190.858 35.3408C191.234 35.3115 191.588 35.2749 191.92 35.231C192.252 35.1821 192.555 35.1309 192.828 35.0771C193.102 35.0186 193.333 34.96 193.524 34.9014V31.8472H189.43V30.9902H194.439V35.4141C194.078 35.541 193.712 35.6533 193.341 35.751C192.975 35.8486 192.594 35.9316 192.198 36C191.808 36.0635 191.4 36.1123 190.975 36.1465C190.555 36.1807 190.113 36.1978 189.649 36.1978C188.702 36.1978 187.823 36.0928 187.013 35.8828C186.202 35.668 185.499 35.3457 184.903 34.916C184.312 34.4814 183.849 33.937 183.512 33.2827C183.175 32.6284 183.006 31.8594 183.006 30.9756C183.006 30.3848 183.084 29.8477 183.241 29.3643C183.397 28.876 183.617 28.439 183.9 28.0532C184.188 27.6626 184.532 27.3232 184.933 27.0352C185.338 26.7471 185.785 26.5103 186.273 26.3247C186.766 26.1343 187.296 25.9927 187.862 25.8999C188.429 25.8022 189.02 25.7534 189.635 25.7534ZM207.293 36V31.1221H198.277V36H197.362V25.9365H198.277V30.2725H207.293V25.9365H208.209V36H207.293ZM221.576 33.2241C221.576 33.6147 221.524 33.9541 221.422 34.2422C221.319 34.5303 221.175 34.7793 220.99 34.9893C220.809 35.1943 220.589 35.3628 220.331 35.4946C220.077 35.6216 219.796 35.7241 219.488 35.8022C219.181 35.8755 218.851 35.9268 218.5 35.9561C218.148 35.9854 217.784 36 217.408 36H211.6V25.9365H217.276C217.564 25.9365 217.853 25.9487 218.141 25.9731C218.429 25.9976 218.705 26.0439 218.968 26.1123C219.237 26.1758 219.483 26.2661 219.708 26.3833C219.938 26.5005 220.135 26.6543 220.301 26.8447C220.472 27.0352 220.604 27.2646 220.697 27.5332C220.794 27.8018 220.843 28.1191 220.843 28.4854C220.843 28.8125 220.802 29.0957 220.719 29.335C220.641 29.5742 220.519 29.7793 220.353 29.9502C220.191 30.1211 219.984 30.2627 219.73 30.375C219.476 30.4824 219.178 30.5679 218.836 30.6313C219.325 30.6655 219.742 30.7485 220.089 30.8804C220.436 31.0122 220.719 31.188 220.938 31.4077C221.158 31.6274 221.319 31.8911 221.422 32.1987C221.524 32.5015 221.576 32.8433 221.576 33.2241ZM219.986 28.5C219.986 28.3584 219.977 28.2168 219.957 28.0752C219.938 27.9336 219.894 27.7993 219.825 27.6724C219.757 27.5405 219.657 27.4185 219.525 27.3062C219.398 27.1938 219.222 27.0986 218.998 27.0205C218.773 26.9375 218.495 26.874 218.163 26.8301C217.835 26.7812 217.44 26.7568 216.976 26.7568H212.516V30.2725H216.976C217.635 30.2725 218.163 30.2261 218.558 30.1333C218.954 30.0356 219.256 29.9062 219.466 29.7451C219.681 29.584 219.82 29.396 219.884 29.1812C219.952 28.9663 219.986 28.7393 219.986 28.5ZM220.616 33.2095C220.616 32.8286 220.55 32.5039 220.418 32.2354C220.287 31.9668 220.084 31.7471 219.811 31.5762C219.537 31.4053 219.186 31.2808 218.756 31.2026C218.326 31.1196 217.816 31.0781 217.225 31.0781H212.516V35.1724H217.35C217.96 35.1724 218.473 35.1382 218.888 35.0698C219.308 34.9966 219.645 34.8818 219.898 34.7256C220.157 34.5645 220.34 34.3594 220.448 34.1104C220.56 33.8613 220.616 33.561 220.616 33.2095ZM236.231 30.9756C236.231 31.8789 236.068 32.6602 235.741 33.3193C235.414 33.9736 234.964 34.5156 234.393 34.9453C233.822 35.3701 233.148 35.6851 232.372 35.8901C231.595 36.0952 230.758 36.1978 229.859 36.1978C228.956 36.1978 228.114 36.0952 227.333 35.8901C226.551 35.6851 225.873 35.3701 225.296 34.9453C224.72 34.5156 224.269 33.9736 223.941 33.3193C223.614 32.6602 223.451 31.8789 223.451 30.9756C223.451 30.375 223.526 29.8306 223.678 29.3423C223.829 28.8491 224.042 28.4097 224.315 28.0239C224.588 27.6333 224.918 27.2964 225.304 27.0132C225.694 26.73 226.126 26.4956 226.6 26.3101C227.079 26.1196 227.591 25.9805 228.138 25.8926C228.685 25.7998 229.259 25.7534 229.859 25.7534C230.758 25.7534 231.595 25.856 232.372 26.061C233.148 26.2661 233.822 26.5835 234.393 27.0132C234.964 27.438 235.414 27.98 235.741 28.6392C236.068 29.2935 236.231 30.0723 236.231 30.9756ZM235.287 30.9756C235.287 30.2627 235.169 29.6328 234.935 29.0859C234.706 28.5391 234.364 28.0801 233.91 27.709C233.456 27.333 232.889 27.0498 232.21 26.8594C231.537 26.6641 230.753 26.5664 229.859 26.5664C228.966 26.5664 228.177 26.6641 227.494 26.8594C226.815 27.0547 226.246 27.3403 225.787 27.7163C225.328 28.0874 224.981 28.5488 224.747 29.1006C224.513 29.6475 224.396 30.2725 224.396 30.9756C224.396 31.6885 224.513 32.3184 224.747 32.8652C224.981 33.4121 225.328 33.8735 225.787 34.2495C226.246 34.6206 226.815 34.9038 227.494 35.0991C228.177 35.2896 228.966 35.3848 229.859 35.3848C230.753 35.3848 231.537 35.2896 232.21 35.0991C232.889 34.9038 233.456 34.6206 233.91 34.2495C234.364 33.8735 234.706 33.4121 234.935 32.8652C235.169 32.3184 235.287 31.6885 235.287 30.9756ZM246.375 26.7129C246.234 26.6689 246.036 26.6226 245.782 26.5737C245.533 26.52 245.211 26.4932 244.815 26.4932C244.269 26.4932 243.753 26.5615 243.27 26.6982C242.792 26.8301 242.345 27.0107 241.93 27.2402C241.52 27.4697 241.139 27.7383 240.787 28.0459C240.436 28.3486 240.118 28.6709 239.835 29.0127V36H238.919V25.9365H239.835V27.9873C240.162 27.6504 240.516 27.3403 240.897 27.0571C241.283 26.7739 241.688 26.5322 242.113 26.332C242.538 26.127 242.982 25.9683 243.446 25.856C243.915 25.7388 244.398 25.6802 244.896 25.6802C245.067 25.6802 245.221 25.6851 245.357 25.6948C245.494 25.6997 245.619 25.7095 245.731 25.7241C245.848 25.7339 245.958 25.7461 246.061 25.7607C246.163 25.7754 246.268 25.7925 246.375 25.812V26.7129ZM258.006 36V31.1221H248.99V36H248.075V25.9365H248.99V30.2725H258.006V25.9365H258.922V36H258.006ZM274.391 30.9756C274.391 31.8789 274.227 32.6602 273.9 33.3193C273.573 33.9736 273.124 34.5156 272.552 34.9453C271.981 35.3701 271.307 35.6851 270.531 35.8901C269.754 36.0952 268.917 36.1978 268.019 36.1978C267.115 36.1978 266.273 36.0952 265.492 35.8901C264.71 35.6851 264.032 35.3701 263.456 34.9453C262.879 34.5156 262.428 33.9736 262.101 33.3193C261.773 32.6602 261.61 31.8789 261.61 30.9756C261.61 30.375 261.686 29.8306 261.837 29.3423C261.988 28.8491 262.201 28.4097 262.474 28.0239C262.748 27.6333 263.077 27.2964 263.463 27.0132C263.854 26.73 264.286 26.4956 264.759 26.3101C265.238 26.1196 265.75 25.9805 266.297 25.8926C266.844 25.7998 267.418 25.7534 268.019 25.7534C268.917 25.7534 269.754 25.856 270.531 26.061C271.307 26.2661 271.981 26.5835 272.552 27.0132C273.124 27.438 273.573 27.98 273.9 28.6392C274.227 29.2935 274.391 30.0723 274.391 30.9756ZM273.446 30.9756C273.446 30.2627 273.329 29.6328 273.094 29.0859C272.865 28.5391 272.523 28.0801 272.069 27.709C271.615 27.333 271.048 27.0498 270.37 26.8594C269.696 26.6641 268.912 26.5664 268.019 26.5664C267.125 26.5664 266.336 26.6641 265.653 26.8594C264.974 27.0547 264.405 27.3403 263.946 27.7163C263.487 28.0874 263.141 28.5488 262.906 29.1006C262.672 29.6475 262.555 30.2725 262.555 30.9756C262.555 31.6885 262.672 32.3184 262.906 32.8652C263.141 33.4121 263.487 33.8735 263.946 34.2495C264.405 34.6206 264.974 34.9038 265.653 35.0991C266.336 35.2896 267.125 35.3848 268.019 35.3848C268.912 35.3848 269.696 35.2896 270.37 35.0991C271.048 34.9038 271.615 34.6206 272.069 34.2495C272.523 33.8735 272.865 33.4121 273.094 32.8652C273.329 32.3184 273.446 31.6885 273.446 30.9756ZM289.156 30.9756C289.156 31.8789 288.993 32.6602 288.666 33.3193C288.338 33.9736 287.889 34.5156 287.318 34.9453C286.747 35.3701 286.073 35.6851 285.296 35.8901C284.52 36.0952 283.683 36.1978 282.784 36.1978C281.881 36.1978 281.039 36.0952 280.257 35.8901C279.476 35.6851 278.797 35.3701 278.221 34.9453C277.645 34.5156 277.193 33.9736 276.866 33.3193C276.539 32.6602 276.375 31.8789 276.375 30.9756C276.375 30.375 276.451 29.8306 276.603 29.3423C276.754 28.8491 276.966 28.4097 277.24 28.0239C277.513 27.6333 277.843 27.2964 278.229 27.0132C278.619 26.73 279.051 26.4956 279.525 26.3101C280.003 26.1196 280.516 25.9805 281.063 25.8926C281.61 25.7998 282.184 25.7534 282.784 25.7534C283.683 25.7534 284.52 25.856 285.296 26.061C286.073 26.2661 286.747 26.5835 287.318 27.0132C287.889 27.438 288.338 27.98 288.666 28.6392C288.993 29.2935 289.156 30.0723 289.156 30.9756ZM288.211 30.9756C288.211 30.2627 288.094 29.6328 287.86 29.0859C287.63 28.5391 287.289 28.0801 286.834 27.709C286.38 27.333 285.814 27.0498 285.135 26.8594C284.461 26.6641 283.678 26.5664 282.784 26.5664C281.891 26.5664 281.102 26.6641 280.418 26.8594C279.74 27.0547 279.171 27.3403 278.712 27.7163C278.253 28.0874 277.906 28.5488 277.672 29.1006C277.438 29.6475 277.32 30.2725 277.32 30.9756C277.32 31.6885 277.438 32.3184 277.672 32.8652C277.906 33.4121 278.253 33.8735 278.712 34.2495C279.171 34.6206 279.74 34.9038 280.418 35.0991C281.102 35.2896 281.891 35.3848 282.784 35.3848C283.678 35.3848 284.461 35.2896 285.135 35.0991C285.814 34.9038 286.38 34.6206 286.834 34.2495C287.289 33.8735 287.63 33.4121 287.86 32.8652C288.094 32.3184 288.211 31.6885 288.211 30.9756ZM302.831 30.9609C302.831 31.6055 302.762 32.1792 302.625 32.6821C302.494 33.1802 302.306 33.6147 302.062 33.9858C301.817 34.3569 301.52 34.6719 301.168 34.9307C300.821 35.1895 300.433 35.397 300.003 35.5532C299.579 35.7095 299.115 35.8242 298.612 35.8975C298.114 35.9658 297.589 36 297.037 36H291.844V25.9365H297.022C297.848 25.9365 298.614 26.0171 299.322 26.1782C300.03 26.3394 300.643 26.6152 301.161 27.0059C301.683 27.3916 302.091 27.9067 302.384 28.5513C302.682 29.1958 302.831 29.999 302.831 30.9609ZM301.886 30.9609C301.886 30.4141 301.832 29.9307 301.725 29.5107C301.617 29.0908 301.463 28.7271 301.263 28.4194C301.063 28.1069 300.819 27.8457 300.531 27.6357C300.243 27.4258 299.918 27.2573 299.557 27.1304C299.195 26.9985 298.802 26.9058 298.377 26.8521C297.953 26.7983 297.501 26.7715 297.022 26.7715H292.76V35.1577H297.022C297.74 35.1577 298.397 35.0942 298.993 34.9673C299.588 34.8354 300.099 34.6108 300.523 34.2935C300.953 33.9712 301.288 33.5415 301.527 33.0044C301.766 32.4624 301.886 31.7812 301.886 30.9609Z" fill="black"/>
</svg>
