<svg width="29" height="274" viewBox="0 0 29 274" fill="none" xmlns="http://www.w3.org/2000/svg">
<path fill-rule="evenodd" clip-rule="evenodd" d="M14.114 133.228C6.319 133.228 0 126.909 0 119.114C0 111.319 6.319 105 14.114 105C21.909 105 28.228 111.319 28.228 119.114C28.228 126.909 21.909 133.228 14.114 133.228ZM18.8 119.436C18.347 118.945 17.741 118.622 16.987 118.462V118.398C17.511 118.177 17.923 117.835 18.22 117.369C18.52 116.904 18.669 116.374 18.669 115.777C18.669 115.261 18.56 114.806 18.344 114.411C18.128 114.019 17.8 113.702 17.362 113.466C16.958 113.247 16.524 113.105 16.061 113.038C15.599 112.967 14.918 112.934 14.021 112.934H9.7V125.163H14.595C15.445 125.163 16.142 125.087 16.692 124.933C17.245 124.778 17.75 124.523 18.209 124.162C18.599 123.859 18.907 123.481 19.137 123.022C19.367 122.561 19.482 122.026 19.482 121.417C19.482 120.587 19.255 119.927 18.8 119.436ZM15.515 122.682C15.198 122.819 14.884 122.892 14.579 122.903C14.273 122.915 13.72 122.92 12.922 122.92H12.756V119.858H13.323C13.869 119.858 14.307 119.861 14.632 119.87C14.957 119.878 15.215 119.917 15.4 119.991C15.706 120.099 15.935 120.259 16.09 120.475C16.244 120.688 16.319 120.983 16.319 121.361C16.319 121.655 16.255 121.92 16.126 122.152C15.997 122.385 15.795 122.561 15.515 122.682ZM14.901 117.577C14.677 117.68 14.458 117.736 14.248 117.748C14.037 117.759 13.667 117.764 13.143 117.764H12.756V115.177H12.969C13.516 115.177 13.928 115.18 14.206 115.188C14.483 115.196 14.722 115.244 14.923 115.334C15.139 115.426 15.296 115.578 15.397 115.785C15.498 115.992 15.549 116.195 15.549 116.393C15.549 116.66 15.501 116.896 15.408 117.1C15.316 117.302 15.145 117.461 14.901 117.577Z" fill="#A967FF"/>
<path fill-rule="evenodd" clip-rule="evenodd" d="M14.114 63.228C6.319 63.228 0 56.909 0 49.114C0 41.319 6.319 35 14.114 35C21.909 35 28.228 41.319 28.228 49.114C28.228 56.909 21.909 63.228 14.114 63.228ZM21.324 43.594C21.324 42.727 20.622 42.025 19.755 42.025H8.667C7.8 42.025 7.098 42.727 7.098 43.594L7.097 54.667C7.097 55.534 7.8 56.236 8.666 56.236H19.755C20.622 56.236 21.324 55.534 21.324 54.667V43.594ZM19.236 46.401H17.559C17.256 46.401 17.009 46.155 17.009 45.851V44.174C17.009 43.87 17.256 43.624 17.559 43.624H19.236C19.54 43.624 19.786 43.87 19.786 44.174V45.851C19.786 46.155 19.54 46.401 19.236 46.401ZM14.233 51.713C12.823 51.713 11.681 50.57 11.681 49.16C11.681 47.749 12.823 46.607 14.233 46.607C15.644 46.607 16.991 47.636 16.991 49.159C16.991 50.683 15.644 51.713 14.233 51.713ZM14.233 53.59C16.677 53.59 18.659 51.608 18.659 49.164C18.659 48.78 18.61 48.406 18.518 48.051C19.312 48.052 19.759 48.05 19.759 48.05V54.154C19.759 54.457 19.513 54.704 19.209 54.704H9.257C8.953 54.704 8.707 54.457 8.707 54.154V48.05C8.707 48.05 8.958 48.051 9.948 48.051C9.855 48.406 9.806 48.78 9.806 49.164C9.806 51.608 11.788 53.59 14.233 53.59Z" fill="#A967FF"/>
<path fill-rule="evenodd" clip-rule="evenodd" d="M14.115 28.228C6.31998 28.228 0.000976562 21.909 0.000976562 14.114C0.000976562 6.319 6.31998 0 14.115 0C21.909 0 28.228 6.319 28.228 14.114C28.228 21.909 21.909 28.228 14.115 28.228ZM21.892 8.427C21.259 8.803 20.558 9.075 19.812 9.222C19.214 8.585 18.363 8.187 17.42 8.187C15.611 8.187 14.144 9.654 14.144 11.463C14.144 11.72 14.173 11.97 14.229 12.21C11.507 12.073 9.09298 10.769 7.47698 8.787C7.19498 9.271 7.03298 9.834 7.03298 10.434C7.03298 11.57 7.61198 12.573 8.49098 13.161C7.95398 13.144 7.44798 12.996 7.00698 12.751C7.00698 12.765 7.00698 12.778 7.00698 12.792C7.00698 14.379 8.13598 15.703 9.63398 16.005C9.35998 16.079 9.06998 16.119 8.77098 16.119C8.55998 16.119 8.35498 16.099 8.15498 16.06C8.57198 17.362 9.78198 18.309 11.215 18.335C10.094 19.214 8.68198 19.738 7.14698 19.738C6.88198 19.738 6.62098 19.723 6.36498 19.692C7.81498 20.622 9.53698 21.164 11.387 21.164C17.413 21.164 20.708 16.172 20.708 11.843C20.708 11.701 20.705 11.56 20.698 11.419C21.339 10.957 21.894 10.38 22.333 9.724C21.746 9.984 21.114 10.16 20.452 10.239C21.128 9.834 21.647 9.192 21.892 8.427Z" fill="#A967FF"/>
<path fill-rule="evenodd" clip-rule="evenodd" d="M14.115 98.228C6.31998 98.228 0.000976562 91.909 0.000976562 84.114C0.000976562 76.319 6.31998 70 14.115 70C21.91 70 28.229 76.319 28.229 84.114C28.229 91.909 21.91 98.228 14.115 98.228ZM17.631 75.459H15.12C12.157 75.459 11.448 76.849 11.448 79.364V81.342H9.74898V84.12H11.448V92.477H14.811V84.12H17.277L17.534 81.342H14.811L14.815 79.672C14.815 78.868 14.891 78.543 16.045 78.543H17.631V75.459Z" fill="#A967FF"/>
<path fill-rule="evenodd" clip-rule="evenodd" d="M14.115 273.228C6.31998 273.228 0.000976562 266.909 0.000976562 259.114C0.000976562 251.319 6.31998 245 14.115 245C21.91 245 28.229 251.319 28.229 259.114C28.229 266.909 21.91 273.228 14.115 273.228ZM18.801 259.436C18.348 258.945 17.742 258.622 16.988 258.462V258.398C17.512 258.177 17.924 257.835 18.221 257.369C18.521 256.904 18.67 256.374 18.67 255.777C18.67 255.261 18.561 254.806 18.345 254.411C18.129 254.019 17.801 253.702 17.363 253.466C16.959 253.247 16.525 253.105 16.062 253.038C15.6 252.967 14.919 252.934 14.022 252.934H9.70098V265.163H14.596C15.446 265.163 16.143 265.087 16.693 264.933C17.246 264.778 17.751 264.523 18.21 264.162C18.6 263.859 18.908 263.481 19.138 263.022C19.368 262.561 19.483 262.026 19.483 261.417C19.483 260.587 19.256 259.927 18.801 259.436ZM15.516 262.682C15.199 262.819 14.885 262.892 14.58 262.903C14.274 262.915 13.721 262.92 12.923 262.92H12.757V259.858H13.324C13.87 259.858 14.308 259.861 14.633 259.87C14.958 259.878 15.216 259.917 15.401 259.991C15.707 260.099 15.936 260.259 16.091 260.475C16.245 260.688 16.32 260.983 16.32 261.361C16.32 261.655 16.256 261.92 16.127 262.152C15.998 262.385 15.796 262.561 15.516 262.682ZM14.902 257.577C14.678 257.68 14.459 257.736 14.249 257.748C14.038 257.759 13.668 257.764 13.144 257.764H12.757V255.177H12.97C13.517 255.177 13.929 255.18 14.207 255.188C14.484 255.196 14.723 255.244 14.924 255.334C15.14 255.426 15.297 255.578 15.398 255.785C15.499 255.992 15.55 256.195 15.55 256.393C15.55 256.66 15.502 256.896 15.409 257.1C15.317 257.302 15.146 257.461 14.902 257.577Z" fill="white"/>
<path fill-rule="evenodd" clip-rule="evenodd" d="M14.115 203.228C6.31998 203.228 0.000976562 196.909 0.000976562 189.114C0.000976562 181.319 6.31998 175 14.115 175C21.91 175 28.229 181.319 28.229 189.114C28.229 196.909 21.91 203.228 14.115 203.228ZM21.325 183.594C21.325 182.727 20.623 182.025 19.756 182.025H8.66798C7.80098 182.025 7.09898 182.727 7.09898 183.594L7.09798 194.667C7.09798 195.534 7.80098 196.236 8.66698 196.236H19.756C20.623 196.236 21.325 195.534 21.325 194.667V183.594ZM19.237 186.401H17.56C17.257 186.401 17.01 186.155 17.01 185.851V184.174C17.01 183.87 17.257 183.624 17.56 183.624H19.237C19.541 183.624 19.787 183.87 19.787 184.174V185.851C19.787 186.155 19.541 186.401 19.237 186.401ZM14.234 191.713C12.824 191.713 11.682 190.57 11.682 189.16C11.682 187.749 12.824 186.607 14.234 186.607C15.645 186.607 16.992 187.636 16.992 189.159C16.992 190.683 15.645 191.713 14.234 191.713ZM14.234 193.59C16.678 193.59 18.66 191.608 18.66 189.164C18.66 188.78 18.611 188.406 18.519 188.051C19.313 188.052 19.76 188.05 19.76 188.05V194.154C19.76 194.457 19.514 194.704 19.21 194.704H9.25798C8.95398 194.704 8.70798 194.457 8.70798 194.154V188.05C8.70798 188.05 8.95898 188.051 9.94898 188.051C9.85598 188.406 9.80698 188.78 9.80698 189.164C9.80698 191.608 11.789 193.59 14.234 193.59Z" fill="white"/>
<path fill-rule="evenodd" clip-rule="evenodd" d="M14.116 168.228C6.32095 168.228 0.00195312 161.909 0.00195312 154.114C0.00195312 146.319 6.32095 140 14.116 140C21.91 140 28.229 146.319 28.229 154.114C28.229 161.909 21.91 168.228 14.116 168.228ZM21.893 148.427C21.26 148.803 20.559 149.075 19.813 149.222C19.215 148.585 18.364 148.187 17.421 148.187C15.612 148.187 14.145 149.654 14.145 151.463C14.145 151.72 14.174 151.97 14.23 152.21C11.508 152.073 9.09395 150.769 7.47795 148.787C7.19595 149.271 7.03395 149.834 7.03395 150.434C7.03395 151.57 7.61295 152.573 8.49195 153.161C7.95495 153.144 7.44895 152.996 7.00795 152.751C7.00795 152.765 7.00795 152.778 7.00795 152.792C7.00795 154.379 8.13695 155.703 9.63495 156.005C9.36095 156.079 9.07095 156.119 8.77195 156.119C8.56095 156.119 8.35595 156.099 8.15595 156.06C8.57295 157.362 9.78295 158.309 11.216 158.335C10.095 159.214 8.68295 159.738 7.14795 159.738C6.88295 159.738 6.62195 159.723 6.36595 159.692C7.81595 160.622 9.53795 161.164 11.388 161.164C17.414 161.164 20.709 156.172 20.709 151.843C20.709 151.701 20.706 151.56 20.699 151.419C21.34 150.957 21.895 150.38 22.334 149.724C21.747 149.984 21.115 150.16 20.453 150.239C21.129 149.834 21.648 149.192 21.893 148.427Z" fill="white"/>
<path fill-rule="evenodd" clip-rule="evenodd" d="M14.116 238.228C6.32095 238.228 0.00195312 231.909 0.00195312 224.114C0.00195312 216.319 6.32095 210 14.116 210C21.911 210 28.23 216.319 28.23 224.114C28.23 231.909 21.911 238.228 14.116 238.228ZM17.632 215.459H15.121C12.158 215.459 11.449 216.849 11.449 219.364V221.342H9.74995V224.12H11.449V232.477H14.812V224.12H17.278L17.535 221.342H14.812L14.816 219.672C14.816 218.868 14.892 218.543 16.046 218.543H17.632V215.459Z" fill="white"/>
</svg>
