<svg width="40" height="40" viewBox="0 0 40 40" fill="none" xmlns="http://www.w3.org/2000/svg">
<path d="M11.649 13.1032L18.3347 5.91137V27.5685C18.3347 28.491 19.0775 29.2338 20 29.2338C20.9224 29.2338 21.6653 28.491 21.6653 27.5685V5.91137L28.351 13.1032C28.9796 13.7808 30.0326 13.8134 30.7102 13.193C31.3878 12.5644 31.4204 11.5114 30.8 10.8338L21.2245 0.531773C20.2857 -0.415166 19.1347 0.107283 18.7837 0.531773L9.20816 10.8338C8.57959 11.5114 8.62041 12.5644 9.29796 13.193C9.96734 13.8134 11.0204 13.7808 11.649 13.1032Z" fill="black"/>
<path d="M38.3347 26.9563C37.4122 26.9563 36.6694 27.6991 36.6694 28.6216V36.6542H3.33061V28.6216C3.33061 27.6991 2.58775 26.9563 1.66531 26.9563C0.742857 26.9563 0 27.7073 0 28.6216V38.3195C0 39.242 0.742857 39.9848 1.66531 39.9848H38.3347C39.2571 39.9848 40 39.242 40 38.3195V28.6216C40 27.7073 39.2571 26.9563 38.3347 26.9563Z" fill="black"/>
</svg>
